<svg id="Results_by_States" xmlns="http://www.w3.org/2000/svg" width="30" height="30" viewBox="0 0 30 30">
  <path id="Path" d="M0,0H30V30H0Z" fill="none" fill-rule="evenodd"/>
  <path id="Shape" d="M24.5,2H4.5A2.524,2.524,0,0,0,2,4.5v20A2.524,2.524,0,0,0,4.5,27h20A2.524,2.524,0,0,0,27,24.5V4.5A2.524,2.524,0,0,0,24.5,2ZM13.25,24.5H4.5V15.75h8.75Zm0-11.25H4.5V4.5h8.75ZM24.5,24.5H15.75V15.75H24.5Zm0-11.25H15.75V4.5H24.5ZM6.287,7.612a1.272,1.272,0,0,1,.962-.387A1.294,1.294,0,0,1,8.4,7.75a1.126,1.126,0,0,1,.213.587h-.65a1.312,1.312,0,0,0-.162-.35.677.677,0,0,0-.525-.2.629.629,0,0,0-.55.287,1.44,1.44,0,0,0-.2.825,1.259,1.259,0,0,0,.213.787.67.67,0,0,0,.55.263A.6.6,0,0,0,7.8,9.725a.893.893,0,0,0,.162-.363h.65a1.37,1.37,0,0,1-.438.838,1.272,1.272,0,0,1-.887.325,1.366,1.366,0,0,1-1.062-.437,1.769,1.769,0,0,1-.375-1.2A1.719,1.719,0,0,1,6.287,7.612Zm3.762-.325h.75l1.113,3.15h-.725l-.2-.65H9.825l-.212.65H8.925ZM10,9.25h.812L10.412,8ZM17.275,7.3h.688l1.25,2.2V7.3h.612v3.15h-.662L17.875,8.212V10.45h-.612V7.3Zm4.962,0h.75l-1.05,1.963v1.175h-.663V9.262L20.187,7.3h.775l.65,1.375ZM6.425,18.55h2.25v.55h-1.6v.725h1.4v.55h-1.4V21.7h-.65Zm2.675,0h.65v2.587h1.575V21.7H9.1Zm10.838,0v.563H19V21.7h-.663V19.112h-.95V18.55Zm.887,3.15h-.762l1.012-1.6-.962-1.55H20.9l.562,1.025.575-1.025H22.8l-.962,1.513,1.025,1.625h-.8l-.6-1.075Z" transform="translate(0.5 0.5)" fill="#27265F"/>
</svg>
