<svg id="USA_Map" xmlns="http://www.w3.org/2000/svg" width="36" height="36" viewBox="0 0 36 36">
  <path id="Path" d="M0,0H36V36H0Z" fill="none" fill-rule="evenodd"/>
  <path id="Path-2" data-name="Path" d="M30.53,10.26l.48.225L29.15,11.55v1.68l-.57,1.62.39,1.065-2.655,3.63,1.005,1.68.435,2.745-.825.51-1.155-1.665L25.37,21.36l-1.785-.51-2.13.39.225.72-1.215.285-1.245-.57-2.7,1.5-.09,1.575-1.515-.51-.87-2.61-.915-.18-.48.75-1-.645-.8-2.085L5.99,18.4,2.915,16.08,2,11.1,3.26,5.61A123.064,123.064,0,0,0,20.24,7.47L19.025,8.625l1.35.045.78-.6,2.085.09.09.555-1.665.48L21.41,11.34l.57,1.11.69-.84-.435-1.9,1.08-.465.915,1.11-.255,1.62.615.285,3.3-3.48,1.905-.75.645-2.19h.615L32,7.575l-1.56,1.44Z" transform="translate(1 2.805)" fill="#27265f"/>
</svg>
