<svg id="White_house" data-name="White house" xmlns="http://www.w3.org/2000/svg" xmlns:xlink="http://www.w3.org/1999/xlink" width="111.528" height="53.698" viewBox="0 0 111.528 53.698">
  <defs>
    <clipPath id="clip-path">
      <rect id="Rectangle_2417" data-name="Rectangle 2417" width="111.528" height="53.698" fill="#333"/>
    </clipPath>
  </defs>
  <g id="Group_36" data-name="Group 36" clip-path="url(#clip-path)">
    <path id="Path_6817" data-name="Path 6817" d="M3.6,21.148h0v3.038h0a.3.3,0,0,0-.3.3h0a.3.3,0,0,0,.3.3H36.229a.3.3,0,0,0,.3-.3h0a.3.3,0,0,0-.3-.3H4.165V21.148H37.144v.33h-.021a.244.244,0,1,0,0,.488h.389v.914h-.175a.458.458,0,0,0,0,.917H74.191a.458.458,0,1,0,0-.917h-.175v-.914h.39a.244.244,0,1,0,0-.488h-.021v-.33h32.979v3.038H75.3a.3.3,0,0,0-.3.3h0a.3.3,0,0,0,.3.3h32.626a.3.3,0,0,0,.3-.3h0a.3.3,0,0,0-.3-.3h0V21.148h0a.3.3,0,1,0,0-.593H74.731v-.306l.768-.81a.29.29,0,0,0-.1-.47l-1.719-.686V15.564h.018a.364.364,0,0,0,.363-.363h0a.364.364,0,0,0-.363-.363H65.037l-9.017-3.6L55.9,3.413,55.862.795a.4.4,0,1,0-.2,0l-.04,2.618-.119,7.828-9.017,3.6H37.834a.364.364,0,0,0-.363.363h0a.364.364,0,0,0,.363.363h.019v2.719l-1.72.686a.291.291,0,0,0-.1.47l.768.81v.306H3.6a.3.3,0,1,0,0,.593M1.359,50.982H110.17a1.358,1.358,0,1,1,0,2.717H1.359a1.358,1.358,0,1,1,0-2.717M3.464,49.1h.143V28.05h0a.3.3,0,0,1-.3-.3h0a.3.3,0,0,1,.3-.3h0V26.115H2.747a.465.465,0,1,1,0-.93H36.061a.465.465,0,1,1,0,.93H4.165v1.341H36.229a.3.3,0,0,1,.3.3h0a.3.3,0,0,1-.3.3H4.165V49.1H37.282l.579-23.547a.485.485,0,0,1,.485-.472h.916a.485.485,0,0,1,.485.472L40.326,49.1h8.263l.58-23.547a.485.485,0,0,1,.485-.473h.916a.485.485,0,0,1,.485.473l.412,16.72h1.342l.2-.626a2.814,2.814,0,0,1,5.511,0l.2.626h1.341l.411-16.72a.485.485,0,0,1,.485-.473h.916a.485.485,0,0,1,.485.473L62.94,49.1H71.2l.579-23.547a.485.485,0,0,1,.485-.472h.916a.485.485,0,0,1,.485.472l.58,23.547h33.117V28.05H75.3a.3.3,0,0,1-.3-.3h0a.3.3,0,0,1,.3-.3h32.064V26.115h-31.9a.465.465,0,1,1,0-.93h33.314a.465.465,0,1,1,0,.93h-.861v1.341h0a.3.3,0,0,1,.3.3h0a.3.3,0,0,1-.3.3h0V49.1h.144a.535.535,0,0,1,.534.534h0a.536.536,0,0,1-.534.534H3.464a.536.536,0,0,1-.535-.534h0a.536.536,0,0,1,.535-.534m48.169,0h1.916V42.869H57.98V49.1H59.9l.159-6.44h-8.58Zm2.388,0h.494V43.768h2.5V49.1h.494V43.333H54.02ZM56.1,1.763h0V4.1c.028.63,1.042,1.063,1.484,1.2s.429.271.6.38c.046-.01.091-.119.106-.151.262-.583.108-.773.651-1.545-.008-.051-.35-.162-.432-.2a2.3,2.3,0,0,1-.77-.473c-.752-.637-.347-1.126-1.641-1.544M73.031,18.025h0l-6.172-2.461h6.172ZM44.669,15.564h0L38.5,18.025V15.564ZM43.208,30.211h0v5.45h2.5v-5.45ZM57.783,41.885h0a2.047,2.047,0,0,0-4.036,0Zm.532.388h0l-.164-.507a2.43,2.43,0,0,0-4.774,0l-.164.507Zm6.54-2.189h0v6.775h-.081a.236.236,0,0,0,0,.471h.08v.233a.236.236,0,0,0,.236.236h0a.236.236,0,0,0,.236-.236V47.33h3.49v.232a.236.236,0,0,0,.236.236h0a.236.236,0,0,0,.235-.236V47.33h.08a.236.236,0,0,0,0-.471h-.081V40.084Zm.471.471h0v6.3h3.488v-6.3Zm.494.427h0v5.449h2.5V40.982Zm1.25-3h0a3.912,3.912,0,0,0-3.063,1.475h6.126a3.912,3.912,0,0,0-3.063-1.475m-2.11,1.087h4.22a3.534,3.534,0,0,0-4.22,0M42.242,40.084h0v6.775h-.08a.236.236,0,0,0,0,.471h.08v.233a.236.236,0,0,0,.472,0V47.33H46.2v.232a.236.236,0,0,0,.235.236h0a.236.236,0,0,0,.236-.236V47.33h.08a.236.236,0,1,0,0-.471h-.081V40.084Zm.472.471h0v6.3H46.2v-6.3Zm.494.427h0v5.449h2.5V40.982Zm1.25-3h0A3.912,3.912,0,0,0,41.4,39.453h6.126a3.912,3.912,0,0,0-3.063-1.475m-2.11,1.087h4.22a3.534,3.534,0,0,0-4.22,0m22.507-9.752h0v6.775h-.081a.236.236,0,0,0,0,.471h.08v.232a.236.236,0,0,0,.236.236h0a.236.236,0,0,0,.236-.236v-.232h3.49v.232a.236.236,0,0,0,.236.236h0a.236.236,0,0,0,.235-.236v-.232h.08a.236.236,0,0,0,0-.471h-.081V29.312Zm.471.472h0v6.3h3.488v-6.3Zm.494.427h0v5.45h2.5v-5.45Zm-12.272-.9h0v6.775h-.081a.236.236,0,0,0,0,.471h.08v.232a.236.236,0,0,0,.236.236h0a.236.236,0,0,0,.236-.236v-.232h3.49v.232a.236.236,0,0,0,.236.236h0a.236.236,0,0,0,.236-.236v-.232h.08a.236.236,0,1,0,0-.471H57.98V29.312Zm.471.472h0v6.3h3.488v-6.3Zm.494.427h0v5.45h2.5v-5.45Zm-12.272-.9h0v6.775h-.08a.236.236,0,0,0,0,.471h.08v.232a.236.236,0,1,0,.472,0v-.232H46.2v.232a.236.236,0,0,0,.235.236h0a.236.236,0,0,0,.236-.236v-.232h.08a.236.236,0,1,0,0-.471h-.081V29.312Zm.472.472h0v6.3H46.2v-6.3Zm49.241-.472h0v6.775h-.081a.236.236,0,1,0,0,.471h.08v.233a.236.236,0,1,0,.471,0v-.232h3.49v.232a.236.236,0,0,0,.236.236h0a.236.236,0,0,0,.236-.236v-.233h.08a.236.236,0,1,0,0-.471h-.08V29.312Zm2.216,8.666h0a3.913,3.913,0,0,0-3.063,1.475h6.127a3.912,3.912,0,0,0-3.063-1.475m-2.11,1.087h4.22a3.534,3.534,0,0,0-4.22,0m10.261-1.247h0l-1.658.817-1.658.817h6.632l-1.658-.817Zm0,.432h0l-1.653.815h3.306Zm-16.3-.432h0l-1.658.817-1.658.817h6.632l-1.658-.817Zm0,.432h0l-1.653.815h3.306Zm-8.151-.272h0A3.913,3.913,0,0,0,74.8,39.453h6.126a3.912,3.912,0,0,0-3.063-1.475m-2.11,1.087h4.22a3.533,3.533,0,0,0-4.22,0m.365,8.265h3.49v.232a.236.236,0,0,0,.235.236h0a.236.236,0,0,0,.236-.236V47.33h.08a.236.236,0,0,0,0-.472h-.08V40.084H75.653v6.775h-.081a.236.236,0,1,0,0,.472h.08v.232a.236.236,0,0,0,.471,0Zm.495-6.348h0v5.449h2.5V40.982Zm-.494-.427h0v6.3h3.488v-6.3Zm8.15,6.775h3.49v.232a.236.236,0,0,0,.472,0V47.33h.079a.236.236,0,1,0,0-.471h-.08V40.084H83.8v6.775h-.081a.236.236,0,1,0,0,.471h.08v.233a.236.236,0,0,0,.471,0Zm0-.472h3.488v-6.3H84.275Zm.494-5.876h0v5.449h2.5V40.982Zm7.656,6.348h3.49v.232a.236.236,0,0,0,.236.236h0a.236.236,0,0,0,.236-.236V47.33h.08a.236.236,0,1,0,0-.471h-.08V40.084H91.955v6.775h-.081a.236.236,0,1,0,0,.471h.08v.233a.236.236,0,0,0,.471,0Zm0-.472h3.488v-6.3H92.426Zm.494-5.876h0v5.449h2.5V40.982Zm7.656,6.348h3.49v.232a.236.236,0,0,0,.236.236h0a.236.236,0,0,0,.236-.236V47.33h.08a.236.236,0,1,0,0-.472h-.08V40.084h-4.431v6.775h-.08a.236.236,0,1,0,0,.472h.08v.232a.236.236,0,0,0,.236.236h0a.236.236,0,0,0,.236-.236Zm.495-6.348h0v5.449h2.5V40.982Zm-.494-.427h0v6.3h3.488v-6.3Zm-24.454-4h3.49v.232a.236.236,0,0,0,.235.236h0a.236.236,0,0,0,.236-.236v-.232h.08a.236.236,0,1,0,0-.471h-.08V29.312H75.653v6.775h-.081a.236.236,0,1,0,0,.471h.08v.232a.236.236,0,1,0,.471,0Zm.495-6.348h0v5.45h2.5v-5.45Zm-.494-.427h0v6.3h3.488v-6.3Zm24.452,6.775h3.49v.232a.236.236,0,0,0,.236.236h0a.236.236,0,0,0,.236-.236v-.232h.08a.236.236,0,1,0,0-.471h-.08V29.312h-4.431v6.775h-.08a.236.236,0,1,0,0,.471h.08v.232a.236.236,0,0,0,.236.236h0a.236.236,0,0,0,.236-.236Zm.495-6.348h0v5.45h2.5v-5.45Zm-.494-.427h0v6.3h3.488v-6.3Zm-16.3,6.775h3.49v.232a.236.236,0,1,0,.472,0v-.233h.079a.236.236,0,1,0,0-.471h-.08V29.312H83.8v6.775h-.081a.236.236,0,1,0,0,.471h.08v.233a.236.236,0,1,0,.471,0Zm0-.471h3.488v-6.3H84.275Zm.494-5.877h0v5.45h2.5v-5.45Zm7.657,5.877h3.488v-6.3H92.426Zm.494-5.877h0v5.45h2.5v-5.45Zm-85.216,0h0v5.45h2.5v-5.45Zm15.336,9.873h0v6.775H22.96a.236.236,0,0,0,0,.471h.08v.233a.236.236,0,0,0,.471,0V47.33H27v.232a.236.236,0,0,0,.471,0V47.33h.08a.236.236,0,1,0,0-.471h-.081V40.084Zm.472.471h0v6.3H27v-6.3Zm.494.427h0v5.449h2.5V40.982Zm1.25-3h0a3.913,3.913,0,0,0-3.063,1.475H28.32a3.913,3.913,0,0,0-3.063-1.475m-2.11,1.087h4.22a3.533,3.533,0,0,0-4.22,0m10.261-1.247h0l-1.658.817-1.658.817h6.632l-1.658-.817Zm0,.432h0l-1.653.815H35.06Zm-16.3-.432h0l-1.658.817-1.658.817h6.632l-1.658-.817Zm0,.432h0l-1.653.815h3.306Zm-8.151-.272h0a3.913,3.913,0,0,0-3.064,1.475h6.127a3.913,3.913,0,0,0-3.063-1.475m-2.11,1.087h4.22a3.533,3.533,0,0,0-4.22,0m24.347,1.019h0v6.775h-.081a.236.236,0,0,0,0,.472h.08v.232a.236.236,0,0,0,.236.236h0a.236.236,0,0,0,.235-.236V47.33h3.49v.232a.236.236,0,0,0,.236.236h0a.236.236,0,0,0,.236-.236V47.33h.08a.236.236,0,0,0,0-.472h-.081V40.084Zm.471.471h0v6.3h3.488v-6.3Zm.494.427h0v5.449h2.5V40.982Zm-17.267-.9h0v6.775h-.081a.236.236,0,1,0,0,.471h.08v.233a.236.236,0,0,0,.236.236h0a.236.236,0,0,0,.236-.236V47.33h3.49v.232a.236.236,0,0,0,.236.236h0a.236.236,0,0,0,.236-.236V47.33h.08a.236.236,0,1,0,0-.471h-.081V40.084Zm.471.471h0v6.3h3.488v-6.3Zm.494.427h0v5.449h2.5V40.982Zm-9.116-.9h0v6.775H6.658a.236.236,0,1,0,0,.472h.08v.232a.236.236,0,0,0,.472,0V47.33H10.7v.232a.236.236,0,0,0,.236.236h0a.236.236,0,0,0,.236-.236V47.33h.08a.236.236,0,0,0,0-.472H11.17V40.084Zm.471.471h0v6.3H10.7v-6.3Zm.494.427h0v5.449h2.5V40.982Zm23.488-11.67h0v6.775h-.081a.236.236,0,1,0,0,.471h.08v.232a.236.236,0,0,0,.236.236h0a.236.236,0,0,0,.235-.236v-.232h3.49v.232a.236.236,0,0,0,.236.236h0a.236.236,0,0,0,.236-.236v-.232h.08a.236.236,0,0,0,0-.471h-.081V29.312Zm.471.472h0v6.3h3.488v-6.3Zm.494.427h0v5.45h2.5v-5.45Zm-17.267-.9h0v6.775h-.081a.236.236,0,1,0,0,.471h.08v.233a.236.236,0,0,0,.236.236h0a.236.236,0,0,0,.236-.236v-.232h3.49v.232a.236.236,0,0,0,.236.236h0a.236.236,0,0,0,.236-.236v-.233h.08a.236.236,0,1,0,0-.471h-.081V29.312Zm.471.472h0v6.3h3.488v-6.3Zm.494.427h0v5.45h2.5v-5.45Zm7.186-.9h0v6.775H22.96a.236.236,0,1,0,0,.471h.08v.233a.236.236,0,1,0,.471,0v-.232H27v.232a.236.236,0,1,0,.471,0v-.233h.08a.236.236,0,1,0,0-.471h-.081V29.312Zm.472.472h0v6.3H27v-6.3Zm.494.427h0v5.45h2.5v-5.45Zm-17.267-.9h0v6.775H6.658a.236.236,0,1,0,0,.471h.08v.232a.236.236,0,0,0,.472,0v-.232H10.7v.232a.236.236,0,0,0,.236.236h0a.236.236,0,0,0,.236-.236v-.232h.08a.236.236,0,0,0,0-.471H11.17V29.312Zm.471.472h0v6.3H10.7v-6.3Zm52.847-5.6h2.72a.565.565,0,1,1-.565.565h-1.59a.565.565,0,1,1-.565-.565m-22.613,0h2.721a.565.565,0,1,1-.565.565H38.009a.565.565,0,1,1-.565-.565m33.92,0h2.72a.565.565,0,1,1-.565.565h-1.59a.565.565,0,1,1-.565-.565m-22.614,0h2.72a.565.565,0,1,1-.565.565H49.315a.565.565,0,1,1-.565-.565m-10.99-3.038H73.768v.33H37.761Zm.369,1.732h0v-.914H73.4v.914Zm34.832-3.336H71.269l-15.5-6.183-15.5,6.183H38.567l17.2-6.846Zm-3.221,0H41.788L55.764,13.98Z" transform="translate(0)" fill="#333" fill-rule="evenodd"/>
  </g>
</svg>
