<svg xmlns="http://www.w3.org/2000/svg" xmlns:xlink="http://www.w3.org/1999/xlink" width="61.42" height="46.716" viewBox="0 0 61.42 46.716">
  <defs>
    <clipPath id="clip-path">
      <rect id="Rectangle_2421" data-name="Rectangle 2421" width="61.42" height="46.716" fill="none"/>
    </clipPath>
  </defs>
  <g id="American_check_mark" data-name="American check mark" transform="translate(0)">
    <rect id="Rectangle_2418" data-name="Rectangle 2418" width="15.877" height="31.966" transform="translate(0 23.087) rotate(-45)" fill="#303b91"/>
    <path id="Path_6819" data-name="Path 6819" d="M71.339,296.361l-.954.486-.757-.757.167,1.057-.954.486,1.057.167.167,1.057.486-.954,1.057.167-.757-.757Zm-3.646,3.646-.954.486-.757-.757.168,1.057-.954.486,1.057.167.168,1.057.486-.954,1.057.168-.757-.757Zm-3.646,3.646-.954.486-.757-.757.167,1.057-.954.486,1.057.168.167,1.057.486-.954,1.057.167-.757-.757Zm7.613-3.325-.954.486-.757-.757.167,1.057-.954.486,1.057.167.167,1.057.486-.954,1.057.167-.757-.757Zm-3.646,3.646-.954.486L66.3,303.7l.168,1.057-.954.486,1.057.167.167,1.057.486-.954,1.057.167-.757-.757Zm7.613-3.325-.954.486-.757-.757.167,1.057-.954.486,1.057.168.167,1.057.486-.954,1.057.167-.757-.757ZM71.981,304.3l-.954.486-.757-.757.167,1.057-.954.486,1.057.167.167,1.057.486-.954,1.057.168-.757-.757Zm-3.646,3.646-.954.486-.757-.757.167,1.057-.954.486,1.057.167.168,1.057.486-.954,1.057.167-.757-.757Zm7.613-3.325-.954.486-.757-.757.167,1.057-.954.486,1.057.168.167,1.057.486-.954,1.057.167-.757-.757ZM72.3,308.263l-.954.486-.757-.757.167,1.057-.954.486,1.057.167.167,1.057.486-.954,1.057.167-.757-.757Zm7.613-3.325-.954.486-.757-.757.167,1.057-.954.486,1.057.167.167,1.057.486-.954,1.057.167-.757-.757Zm-3.646,3.646-.954.486-.757-.757.168,1.057-.954.486,1.057.168L75,311.08l.486-.954,1.057.167-.757-.757Zm-3.646,3.646-.954.486-.757-.757.168,1.057-.954.486,1.057.167.168,1.057.486-.954,1.057.167-.757-.757Zm7.613-3.325-.954.486-.757-.757.167,1.057-.954.486,1.057.167.167,1.057.486-.954,1.057.167-.757-.757Zm-3.646,3.646-.954.486-.757-.757.168,1.057-.954.486,1.057.167.167,1.057.486-.954,1.057.167L76.1,313.5Zm5.117-2.053,1.057.167.167,1.057.486-.954,1.057.167-.757-.757.486-.954-.954.486-.757-.757.168,1.057Zm-1.149,2.374-.954.486-.757-.757.168,1.057-.954.486,1.057.168.168,1.057.486-.954,1.057.167-.757-.757Zm-3.646,3.646-.954.486-.757-.757.167,1.057-.954.486,1.057.168.167,1.057.486-.954,1.057.167-.757-.757Z" transform="translate(-58.445 -281.151)" fill="#eaeaea"/>
    <g id="Group_39" data-name="Group 39" transform="translate(0)">
      <g id="Group_38" data-name="Group 38" clip-path="url(#clip-path)">
        <path id="Path_6820" data-name="Path 6820" d="M271.6,0,236.838,34.764a2.685,2.685,0,0,1-3.725.068l0,0L244.276,46l0,0A2.685,2.685,0,0,0,248,45.931l34.764-34.764Z" transform="translate(-221.348)" fill="#b22234"/>
        <rect id="Rectangle_2419" data-name="Rectangle 2419" width="51.852" height="3.018" transform="translate(20.474 43.549) rotate(-45)" fill="#eaeaea"/>
        <rect id="Rectangle_2420" data-name="Rectangle 2420" width="51.852" height="3.018" transform="translate(15.891 38.966) rotate(-45)" fill="#eaeaea"/>
      </g>
    </g>
  </g>
</svg>
