<svg width="20" height="20" viewBox="0 0 16 16" version="1.1" xmlns="http://www.w3.org/2000/svg"><title>icon / checkmark</title>
<g id="icons" stroke="none" stroke-width="1" fill="none" fill-rule="evenodd">
<g id="icon-/-checkmark--/-dem">
<path d="M0,8 C0,12.4181333 3.58186667,16 8,16 C12.4181333,16 16,12.4181333 16,8 C16,3.5816 12.4181333,0 8,0 C3.58186667,0 0,3.5816 0,8 Z" id="path-1-copy" fill="#CD433C"></path>
<path d="M13.5967059,5.98070588 L8.248,11.3294118 L7.24329412,12.3341176 C7.10541176,12.472 6.93788235,12.5407059 6.74117647,12.5407059 C6.544,12.5407059 6.37647059,12.472 6.23858824,12.3341176 L5.23435294,11.3294118 L2.55952941,8.65505882 C2.42164706,8.51717647 2.35294118,8.34964706 2.35294118,8.15294118 C2.35294118,7.95576471 2.42164706,7.78823529 2.55952941,7.65035294 L3.56470588,6.64564706 C3.70258824,6.50823529 3.86964706,6.43905882 4.06682353,6.43905882 C4.264,6.43905882 4.43105882,6.50823529 4.56894118,6.64564706 L6.74117647,8.82494118 L11.5872941,3.97129412 C11.7247059,3.83341176 11.8922353,3.76470588 12.0894118,3.76470588 C12.2865882,3.76470588 12.4541176,3.83341176 12.592,3.97129412 L13.5967059,4.976 C13.7345882,5.11435294 13.8032941,5.28188235 13.8032941,5.47858824 C13.8032941,5.67529412 13.7345882,5.84282353 13.5967059,5.98070588 Z" id="Fill-1" fill="#FFFFFF"></path>
</g></g>
</svg>
