<svg id="Infragistics-horizontal" xmlns="http://www.w3.org/2000/svg" width="195.997" height="27.375" viewBox="0 0 195.997 27.375">
  <path id="Path_6796" data-name="Path 6796" d="M66.5,26.128V8.329h2.862v17.8Zm7.026,0V7.652L84.819,18.529c.312.312.625.625.937.989s.625.729.989,1.2V8.329H89.4V26.856L77.9,15.771c-.312-.312-.625-.625-.885-.937a8.11,8.11,0,0,1-.833-1.041V26.18H73.526Zm20.037,0V8.329h9.94v2.446H96.425V15.2h7.026v2.55H96.425v8.379Zm15.769-7.963v7.963h-2.706V8.329h4.059a12.88,12.88,0,0,1,2.758.208,4.251,4.251,0,0,1,2.966,2.446,5.22,5.22,0,0,1,.468,2.238,5,5,0,0,1-1.041,3.331,4.422,4.422,0,0,1-3.071,1.457l6.141,8.119h-3.279L109.7,18.165h-.364Zm.208-2.238h.52a5.975,5.975,0,0,0,3.071-.52,2.1,2.1,0,0,0,.729-1.874,2.369,2.369,0,0,0-.833-2.082,5.2,5.2,0,0,0-3.019-.625h-.52v5.1Zm22.8,10.2-2.03-4.58h-7.078l-2.082,4.58h-3.019L126.767,7.6l8.587,18.528Zm-8.015-6.974h4.944l-1.822-4.059c-.1-.26-.208-.572-.312-.885s-.208-.729-.364-1.145l-.312,1.093-.312.937Zm22.171-2.134h7.078v.52c0,.572.052.989.052,1.145a7.783,7.783,0,0,1-2.134,5.829A8.454,8.454,0,0,1,145.4,26.6a11.375,11.375,0,0,1-3.9-.625,8.294,8.294,0,0,1-4.944-4.944,9.794,9.794,0,0,1-.677-3.747,9.794,9.794,0,0,1,.677-3.747,9.08,9.08,0,0,1,2.03-3.019,8.54,8.54,0,0,1,3.071-1.926,9.794,9.794,0,0,1,3.747-.677,8.615,8.615,0,0,1,3.747.781,8.952,8.952,0,0,1,2.966,2.342l-2.134,1.613a7.08,7.08,0,0,0-2.03-1.561,5.887,5.887,0,0,0-2.55-.52,6.392,6.392,0,0,0-4.736,1.874,6.724,6.724,0,0,0-1.822,4.84,6.765,6.765,0,0,0,1.822,4.892,6.311,6.311,0,0,0,4.736,1.874,5.917,5.917,0,0,0,3.9-1.145,3.892,3.892,0,0,0,1.405-3.175v-.26h-4.268V17.02Zm10.2,9.108V8.329h2.914v17.8Zm6.037-3.539,2.29-1.093a3.23,3.23,0,0,0,1.2,1.822,3.788,3.788,0,0,0,2.238.625,2.759,2.759,0,0,0,2.03-.729,2.435,2.435,0,0,0,.781-1.926c0-1.041-.885-1.978-2.6-2.81-.26-.1-.416-.208-.572-.26a11.5,11.5,0,0,1-3.9-2.6,4.169,4.169,0,0,1-.989-2.862,4.6,4.6,0,0,1,1.457-3.539,5.6,5.6,0,0,1,3.851-1.353,6.371,6.371,0,0,1,3.279.781,3.953,3.953,0,0,1,1.822,2.186l-2.238,1.145a3.466,3.466,0,0,0-1.2-1.249,2.759,2.759,0,0,0-1.457-.364,2.716,2.716,0,0,0-1.874.625,2.014,2.014,0,0,0-.677,1.613c0,1.093.989,2.082,3.019,3.019.156.052.26.156.364.156a11.189,11.189,0,0,1,3.643,2.394,4.215,4.215,0,0,1,.989,2.914,5.143,5.143,0,0,1-1.613,4.007,6.146,6.146,0,0,1-4.32,1.509,6.5,6.5,0,0,1-3.747-1.041A5.313,5.313,0,0,1,162.729,22.589Zm20.453-11.814V26.128h-2.914V10.775h-4.736V8.329h12.334v2.446h-4.684Zm6.974,15.353V8.329h2.914v17.8Zm21.338-13.479a9.611,9.611,0,0,0-2.6-1.561,7.741,7.741,0,0,0-2.862-.52,6.311,6.311,0,0,0-4.736,1.874,6.724,6.724,0,0,0-1.822,4.84,6.522,6.522,0,0,0,1.769,4.736,5.972,5.972,0,0,0,4.476,1.874,8.409,8.409,0,0,0,3.019-.572,10.268,10.268,0,0,0,2.758-1.665v3.331a7.765,7.765,0,0,1-2.55,1.249,11.038,11.038,0,0,1-2.967.416,10.251,10.251,0,0,1-3.8-.677,9.149,9.149,0,0,1-3.071-1.978,8.455,8.455,0,0,1-1.978-3.019,9.712,9.712,0,0,1-.677-3.7,9.712,9.712,0,0,1,.677-3.7,9.08,9.08,0,0,1,2.03-3.019,8.223,8.223,0,0,1,3.019-1.978,9.712,9.712,0,0,1,3.7-.677,9.885,9.885,0,0,1,3.019.468,10.633,10.633,0,0,1,2.758,1.405l-.156,2.862Zm2.6,9.94,2.29-1.093a3.23,3.23,0,0,0,1.2,1.822,3.788,3.788,0,0,0,2.238.625,2.759,2.759,0,0,0,2.03-.729,2.435,2.435,0,0,0,.781-1.926c0-1.041-.885-1.978-2.6-2.81-.26-.1-.416-.208-.572-.26a11.5,11.5,0,0,1-3.9-2.6,4.169,4.169,0,0,1-.989-2.862,4.6,4.6,0,0,1,1.457-3.539,5.6,5.6,0,0,1,3.851-1.353,6.371,6.371,0,0,1,3.279.781,3.953,3.953,0,0,1,1.822,2.186l-2.238,1.145a3.466,3.466,0,0,0-1.2-1.249,2.759,2.759,0,0,0-1.457-.364,2.716,2.716,0,0,0-1.874.625,2.014,2.014,0,0,0-.677,1.613c0,1.093.989,2.082,3.019,3.019.156.052.26.156.364.156a11.189,11.189,0,0,1,3.643,2.394,4.215,4.215,0,0,1,.989,2.914,5.143,5.143,0,0,1-1.613,4.007,6.146,6.146,0,0,1-4.32,1.509,6.5,6.5,0,0,1-3.747-1.041,5.04,5.04,0,0,1-1.769-2.966ZM227.888,9.317a1.4,1.4,0,0,1-1.405,1.405,1.444,1.444,0,0,1-1.457-1.405,1.431,1.431,0,0,1,2.862,0Zm-2.55,0a1.067,1.067,0,0,0,1.093,1.093,1.025,1.025,0,0,0,1.041-1.093,1.111,1.111,0,0,0-1.093-1.145A1.138,1.138,0,0,0,225.338,9.317Zm.885.729h-.312V8.641c.1,0,.312-.052.52-.052a.88.88,0,0,1,.468.1.445.445,0,0,1,.156.312q0,.234-.312.312c.156.052.208.156.26.364s.052.312.1.364h-.364c-.052-.052-.052-.156-.1-.364,0-.156-.1-.208-.312-.208h-.156v.572Zm0-.781h.156c.156,0,.312-.052.312-.208,0-.1-.1-.208-.312-.208h-.156Z" transform="translate(-31.891 -3.645)" fill="#fff"/>
  <path id="Path_6797" data-name="Path 6797" d="M0,0H29.873V27.375H0Z" fill="#09f"/>
  <path id="Path_6798" data-name="Path 6798" d="M8.9,8.9h4.788v4.736H8.9Z" transform="translate(-4.268 -4.268)" fill="#fff"/>
  <path id="Path_6799" data-name="Path 6799" d="M26.491,8.9H15.405v9.42h4.476V13.532h4.84v8.8H13.532V15.353H8.9v8.639a2.965,2.965,0,0,0,2.966,2.966H29.405V11.919A2.934,2.934,0,0,0,26.491,8.9Z" transform="translate(-4.268 -4.268)" fill="#fff"/>
</svg>
