<svg id="Electoral_Votes" xmlns="http://www.w3.org/2000/svg" width="36" height="36" viewBox="0 0 36 36">
  <path id="Path" d="M0,0H36V36H0Z" fill="none" fill-rule="evenodd"/>
  <path id="Shape" d="M13.568,23.294v3.042a.344.344,0,0,1-.347.335h-.693V22.959h.693A.344.344,0,0,1,13.568,23.294Zm5.261-.335H16.907l.315-1.567a.386.386,0,0,0-.031-.228,1.6,1.6,0,0,0-.315-.411l-.158-.152-2.237,2.16a.691.691,0,0,0-.2.487v2.647a.81.81,0,0,0,.819.791h2.835a.68.68,0,0,0,.6-.335l.929-2.084a.862.862,0,0,0,.063-.274v-.365A.687.687,0,0,0,18.829,22.959ZM27.05,17.21,25.475,32.42H6.575L5,17.21H7.268c1.5-4.852,3.512-8.457,8.757-8.457s7.261,3.59,8.757,8.457Zm-16.27,0h1.748V13.833Zm10.49,6.753A5.155,5.155,0,0,0,16.025,18.9a5.068,5.068,0,1,0,0,10.13A5.146,5.146,0,0,0,21.27,23.963Zm0-6.753-1.748-3.377V17.21ZM16.025,8.753a3.43,3.43,0,0,0,3.5-3.377,3.5,3.5,0,0,0-6.993,0A3.43,3.43,0,0,0,16.025,8.753Z" transform="translate(1.975 0.79)" fill="#ffffff"/>
</svg>
