<svg id="Popular_Votes" xmlns="http://www.w3.org/2000/svg" width="34" height="34" viewBox="0 0 34 34">
  <path id="Path" d="M0,0H34V34H0Z" fill="none" fill-rule="evenodd"/>
  <path id="Shape" d="M27.5,8.421H23.75V1H27.5ZM17.312,3.053c-2.937,0-6.062,1.657-7.1,6.6h2.55c.225-1.645.987-2.474,2.238-2.474a1.463,1.463,0,0,1,1.412,1.3s-4.662,3.475-4.487,5.256c.05.544.688,1.163,1.15.866C16.013,12.725,22.5,7.06,22.5,7.06V3.016S18.513,3.053,17.312,3.053ZM13.75,15.644a1.689,1.689,0,0,1-.937.272,2.3,2.3,0,0,1-2.137-2.065,4.527,4.527,0,0,1,1.287-2.956H8.75v8.658h12.5V10.895H19.913A74.763,74.763,0,0,1,13.75,15.644ZM30,20.789v4.947a2.486,2.486,0,0,1-2.5,2.474H2.487A2.483,2.483,0,0,1,0,25.736V20.789l3.75-3.71h2.5v2.474H4.725L2.5,22.026h25l-2.212-2.474H23.75V17.079h2.5Z" transform="translate(3 3)" fill="#ffffff"/>
</svg>
