<svg id="grid" xmlns="http://www.w3.org/2000/svg" width="30" height="30" viewBox="0 0 30 30">
  <path id="grid-2" data-name="grid" d="M24.5,2H4.5A2.519,2.519,0,0,0,2,4.5v20A2.519,2.519,0,0,0,4.5,27h20A2.519,2.519,0,0,0,27,24.5V4.5A2.519,2.519,0,0,0,24.5,2ZM10.75,4.5h7.5v5h-7.5Zm0,7.5h7.5v5h-7.5Zm0,7.5h7.5v5h-7.5ZM4.5,4.5H8.25v5H4.5Zm0,7.5H8.25v5H4.5Zm0,12.5v-5H8.25v5Zm20,0H20.75v-5H24.5Zm0-7.5H20.75V12H24.5Zm0-7.5H20.75v-5H24.5Z" transform="translate(0 1)" fill="#ffffff"/>
  <path id="Path" d="M0,0H30V30H0Z" fill="none" fill-rule="evenodd"/>
</svg>
